<svg xmlns="http://www.w3.org/2000/svg" version="1.1" xmlns:xlink="http://www.w3.org/1999/xlink" xmlns:svgjs="http://svgjs.dev/svgjs" width="1500" height="1500" viewBox="0 0 1500 1500"><rect width="1500" height="1500" fill="#ffffff"></rect><g transform="matrix(0.6666666666666666,0,0,0.6666666666666666,249.39456622848945,532.8999658071649)"><svg viewBox="0 0 396 172" data-background-color="#ffffff" preserveAspectRatio="xMidYMid meet" height="651" width="1500" xmlns="http://www.w3.org/2000/svg" xmlns:xlink="http://www.w3.org/1999/xlink"><g id="tight-bounds" transform="matrix(1,0,0,1,0.24024822648183886,0.03964488748303552)"><svg viewBox="0 0 395.5199999999999 171.92071022503393" height="171.92071022503393" width="395.5199999999999"><g><svg viewBox="0 0 395.5199999999999 171.92071022503393" height="171.92071022503393" width="395.5199999999999"><g transform="matrix(1,0,0,1,0,112.82394839669098)"><svg viewBox="0 0 395.5199999999999 59.096761828342935" height="59.096761828342935" width="395.5199999999999"><g id="textblocktransform"><svg viewBox="0 0 395.5199999999999 59.096761828342935" height="59.096761828342935" width="395.5199999999999" id="textblock"><g><svg viewBox="0 0 395.5199999999999 59.096761828342935" height="59.096761828342935" width="395.5199999999999"><g transform="matrix(1,0,0,1,0,0)"><svg width="395.5199999999999" viewBox="4.13038 -28.5763944790675 302.74287999999996 45.234414479067496" height="59.096761828342935" data-palette-color="#31302e"><path d="M19.141 14.799l-10.674 1.364-4.337-33.934 10.674-1.364c3.749-0.479 7.104-0.185 10.062 0.881 2.959 1.067 5.378 2.771 7.257 5.111 1.871 2.335 3.023 5.199 3.457 8.592v0c0.434 3.399 0.04 6.464-1.184 9.194-1.229 2.738-3.142 4.995-5.738 6.772-2.596 1.777-5.768 2.905-9.517 3.384zM14.952-17.975v0l-7.37 0.942 4.04 31.613 7.37-0.942c4.682-0.598 8.164-2.458 10.447-5.579 2.277-3.114 3.097-7.16 2.461-12.14v0c-0.636-4.973-2.447-8.683-5.435-11.131-2.994-2.44-6.831-3.361-11.513-2.763zM45.385 11.781l-3.555 0.327 9.959-35.271 3.017-0.278 16.23 32.861-3.555 0.327-7.503-15.407-11.054 1.017zM52.649-20.692l-0.289 0.027-3.204 14.826 10.276-0.946zM86.404 8.399l-7.902 0.528-2.285-34.133 6.785-0.454c3.512-0.235 6.292 0.314 8.339 1.647 2.047 1.333 3.157 3.3 3.331 5.9v0c0.128 1.916-0.331 3.587-1.378 5.013-1.047 1.426-2.579 2.451-4.595 3.074v0l0.019 0.29c2.818 0.172 5.068 0.994 6.75 2.464 1.682 1.471 2.604 3.41 2.765 5.819v0c0.189 2.827-0.75 5.112-2.819 6.853-2.069 1.735-5.072 2.735-9.01 2.999zM83.13-24.496v0l-3.512 0.235 0.979 14.627 3.462-0.232c5.135-0.344 7.54-2.953 7.214-7.829v0c-0.326-4.876-3.04-7.143-8.143-6.801zM85.256-8.763v0l-4.58 0.306 1.07 15.995 4.58-0.307c5.953-0.398 8.751-3.265 8.395-8.6v0c-0.357-5.328-3.512-7.793-9.465-7.394zM108.105 7.259l-1.28-34.186 6.546-0.245c3.451-0.129 6.156 0.493 8.115 1.868 1.96 1.381 2.988 3.374 3.086 5.978v0c0.076 2.019-0.455 3.716-1.591 5.093-1.142 1.384-2.828 2.344-5.055 2.882v0l0.01 0.289c2.168 0.346 3.964 1.289 5.39 2.831 1.426 1.548 2.525 3.481 3.299 5.8v0c0.7 2.122 1.372 3.768 2.017 4.938 0.651 1.163 1.352 1.991 2.104 2.483 0.752 0.492 1.636 0.836 2.65 1.032v0l0.011 0.29-1.998 0.075c-1.432 0.054-2.625-0.162-3.577-0.647-0.945-0.485-1.768-1.335-2.467-2.55-0.693-1.215-1.373-2.901-2.041-5.057v0c-1.072-3.322-2.417-5.654-4.034-6.994-1.611-1.341-3.543-1.969-5.795-1.884v0l-0.29 0.011-0.033-0.88 0.29-0.011c5.243-0.196 7.774-2.703 7.594-7.519v0c-0.178-4.757-2.725-7.043-7.642-6.859v0l-3.217 0.121 1.236 33.016zM135.409-10.69v0c-0.014-2.507 0.421-4.846 1.303-7.017 0.888-2.171 2.135-4.068 3.739-5.691 1.605-1.622 3.488-2.886 5.65-3.79 2.162-0.912 4.496-1.374 7.002-1.388v0c2.507-0.014 4.846 0.424 7.017 1.312 2.171 0.882 4.068 2.125 5.691 3.729 1.622 1.605 2.889 3.488 3.8 5.65 0.905 2.162 1.364 4.496 1.378 7.003v0c0.014 2.513-0.42 4.856-1.302 7.027-0.888 2.171-2.135 4.068-3.74 5.69-1.605 1.622-3.488 2.886-5.649 3.791-2.162 0.905-4.496 1.364-7.003 1.377v0c-2.507 0.014-4.846-0.421-7.017-1.302-2.171-0.882-4.068-2.125-5.69-3.729-1.622-1.605-2.889-3.488-3.801-5.65-0.905-2.162-1.364-4.499-1.378-7.012zM139.119-10.71v0c0.018 3.327 0.62 6.233 1.807 8.72 1.187 2.487 2.844 4.415 4.972 5.783 2.127 1.375 4.591 2.055 7.391 2.04v0c2.8-0.015 5.256-0.722 7.369-2.119 2.113-1.391 3.749-3.347 4.908-5.867 1.16-2.513 1.731-5.416 1.713-8.709v0c-0.018-3.287-0.62-6.173-1.807-8.661-1.187-2.487-2.844-4.425-4.971-5.813-2.128-1.389-4.591-2.075-7.391-2.06v0c-2.8 0.015-5.25 0.718-7.349 2.11-2.092 1.398-3.725 3.347-4.899 5.846-1.18 2.5-1.761 5.41-1.743 8.73zM189.34 7.63l-12.703-35.415 3.567 0.14 10.8 30.356 0.29 0.011 8.572-19.039-3.834-10.708 3.557 0.14 10.754 30.254 0.29 0.011 11.039-29.4 3.557 0.139-15.425 34.313-1.079-0.043-8.243-23.06-10.073 22.343zM228.025 7.554v0l0.512-2.901 0.289 0.021c1.183 1.196 2.55 2.161 4.101 2.895 1.544 0.734 3.098 1.158 4.66 1.272v0c2.208 0.161 4.04-0.318 5.498-1.435 1.452-1.118 2.252-2.7 2.401-4.749v0c0.083-1.137-0.093-2.213-0.527-3.226-0.434-1.014-1.19-2.065-2.268-3.153-1.083-1.095-2.59-2.301-4.519-3.617v0c-1.337-0.913-2.605-1.861-3.804-2.844-1.205-0.99-2.17-2.106-2.895-3.349-0.725-1.243-1.027-2.695-0.906-4.357v0c0.179-2.467 1.215-4.39 3.107-5.77 1.899-1.386 4.311-1.972 7.236-1.759v0c1.303 0.095 2.689 0.336 4.159 0.723 1.476 0.381 2.604 0.814 3.385 1.299v0l-0.439 2.715-0.289-0.021c-1.709-2.15-4.009-3.33-6.901-3.54v0c-2.081-0.151-3.792 0.256-5.132 1.221-1.346 0.958-2.085 2.332-2.215 4.121v0c-0.097 1.336 0.168 2.509 0.797 3.517 0.629 1.008 1.467 1.935 2.515 2.779 1.055 0.845 2.188 1.67 3.4 2.474v0c1.401 0.951 2.759 1.949 4.073 2.993 1.314 1.045 2.369 2.258 3.165 3.639 0.795 1.381 1.121 3.063 0.976 5.044v0c-0.132 1.815-0.671 3.384-1.615 4.705-0.945 1.322-2.217 2.315-3.817 2.981-1.599 0.666-3.423 0.924-5.47 0.776v0c-1.297-0.094-2.811-0.365-4.543-0.812-1.732-0.453-3.376-1.001-4.934-1.642zM271.992 12.377l-14.993-1.419 3.222-34.058 14.844 1.405-0.225 2.379-8.407-1.92c-1.475-0.334-2.472-0.525-2.989-0.575v0l-1.403 14.834c0.418 0.04 1.428 0.088 3.029 0.146v0l8.021 0.267-0.212 2.24-7.928-1.242c-1.583-0.25-2.584-0.395-3.003-0.435v0l-1.542 16.297c0.584 0.055 1.615 0.056 3.094 0.001v0l8.717-0.3zM281.706 13.582l4.156-33.957 6.501 0.796c3.428 0.42 6 1.463 7.717 3.131 1.716 1.674 2.416 3.805 2.099 6.392v0c-0.245 2.005-1.038 3.597-2.378 4.777-1.347 1.185-3.163 1.866-5.449 2.043v0l-0.035 0.288c2.086 0.685 3.71 1.901 4.873 3.649 1.162 1.754 1.941 3.838 2.338 6.25v0c0.355 2.206 0.757 3.938 1.208 5.195 0.458 1.252 1.019 2.18 1.684 2.785 0.665 0.605 1.483 1.085 2.453 1.439v0l-0.035 0.288-1.985-0.243c-1.423-0.174-2.566-0.576-3.429-1.205-0.857-0.629-1.534-1.598-2.032-2.909-0.491-1.309-0.896-3.082-1.213-5.317v0c-0.531-3.45-1.49-5.965-2.875-7.545-1.378-1.579-3.186-2.506-5.422-2.779v0l-0.288-0.035 0.107-0.874 0.288 0.035c5.208 0.637 8.104-1.436 8.69-6.22v0c0.578-4.725-1.574-7.386-6.458-7.984v0l-3.196-0.391-4.014 32.795z" opacity="1" transform="matrix(1,0,0,1,0,0)" fill="#000000" class="wordmark-text-0" data-fill-palette-color="primary" id="text-0"></path></svg></g></svg></g></svg></g></svg></g><g transform="matrix(1,0,0,1,124.99276823161293,0)"><svg viewBox="0 0 145.53446353677407 95.61856063825886" height="95.61856063825886" width="145.53446353677407"><g><svg xmlns="http://www.w3.org/2000/svg" xmlns:xlink="http://www.w3.org/1999/xlink" version="1.1" x="0" y="0" viewBox="3.273 10.725 43.45399999999999 28.549999999999997" enable-background="new 0 0 50 50" xml:space="preserve" height="95.61856063825886" width="145.53446353677407" class="icon-icon-0" data-fill-palette-color="accent" id="icon-0"><g fill="#8a8d56" data-fill-palette-color="accent"><g fill="#8a8d56" data-fill-palette-color="accent"><path fill="#000000" d="M43.384 39.275H6.615A3.35 3.35 0 0 1 3.273 35.931V14.068C3.273 12.225 4.773 10.725 6.615 10.725H43.384C45.227 10.725 46.727 12.225 46.727 14.068V35.931C46.727 37.773 45.227 39.275 43.384 39.275M6.615 12.956C6.001 12.956 5.502 13.454 5.502 14.069V35.935C5.502 36.55 6.002 37.046 6.615 37.046H43.384C43.998 37.046 44.497 36.55 44.497 35.935V14.069C44.497 13.453 43.998 12.956 43.384 12.956z" data-fill-palette-color="accent"></path></g><g fill="#8a8d56" data-fill-palette-color="accent"><rect x="4.387" y="17.819" fill="#000000" width="41.225" height="2.229" data-fill-palette-color="accent"></rect></g><g fill="#8a8d56" data-fill-palette-color="accent"><circle cx="8.565" cy="15.454" r="1.2" fill="#000000" data-fill-palette-color="accent"></circle></g><g fill="#8a8d56" data-fill-palette-color="accent"><circle cx="11.908" cy="15.454" r="1.2" fill="#000000" data-fill-palette-color="accent"></circle></g><g fill="#8a8d56" data-fill-palette-color="accent"><circle cx="15.251" cy="15.454" r="1.2" fill="#000000" data-fill-palette-color="accent"></circle></g></g></svg></g></svg></g><g></g></svg></g><defs></defs></svg><rect width="395.5199999999999" height="171.92071022503393" fill="none" stroke="none" visibility="hidden"></rect></g></svg></g></svg>